<?xml version="1.0" encoding="utf-8"?>
<!-- Generator: Adobe Illustrator 22.0.0, SVG Export Plug-In . SVG Version: 6.00 Build 0)  -->
<svg version="1.1" id="logo_manulife" xmlns="http://www.w3.org/2000/svg" xmlns:xlink="http://www.w3.org/1999/xlink" x="0px"
	 y="0px" viewBox="0 0 120 22" style="enable-background:new 0 0 120 22;" xml:space="preserve">
<style type="text/css">
	.st0{fill:#00A758;}
</style>
<path id="Logo_拷贝" d="M64.4,19v-1.3c-0.8,1-2.1,1.6-3.4,1.6c-1.9,0.1-3.5-1.3-3.7-3.2c0-0.1,0-0.2,0-0.3c0-2.7,2.5-3.6,4.9-3.9
	l1-0.1c0.6,0,1.2-0.4,1.3-1.1c0,0,0-0.1,0-0.1c0-0.8-0.7-1.3-1.8-1.3c-1.2,0.1-2.3,0.7-2.9,1.6l-1.4-1.7c1.1-1.3,2.8-2,4.5-2
	c2.6,0,4.2,1.4,4.2,3.6V19H64.4z M64.4,13.5l-1.7,0.2c-1.5,0.2-2.8,0.7-2.8,2c0,0.9,0.8,1.6,1.7,1.5c0,0,0.1,0,0.1,0
	c1.1-0.1,2.2-0.7,2.8-1.6L64.4,13.5L64.4,13.5L64.4,13.5z M71.8,19h-2.5V7.5h2.5v1.3c1-1,2.4-1.5,3.8-1.6c1.4,0,3.2,0.8,3.2,3.6V19
	h-2.5v-7.5c0-1.1-0.5-2.1-1.7-2.1c-1.1,0.1-2,0.6-2.8,1.4C71.8,10.7,71.8,19,71.8,19z M87.7,7.5h2.5V19h-2.6v-1.2
	c-0.9,0.9-2.1,1.4-3.3,1.5c-1.9,0.1-3.4-1.3-3.6-3.2c0-0.2,0-0.3,0-0.5V7.5h2.5v7.3c0,1.3,0.6,2.3,1.8,2.3c1-0.1,2-0.6,2.6-1.4
	L87.7,7.5L87.7,7.5z M95.6,19h-2.5V3.8l2.5-2.5V19z M99.7,2.3c0.9,0,1.6,0.7,1.6,1.6c0,0.9-0.7,1.6-1.6,1.6c-0.9,0-1.6-0.7-1.6-1.6
	C98.1,3,98.8,2.3,99.7,2.3C99.7,2.3,99.7,2.3,99.7,2.3z M101.1,19h-2.6V7.5h2.6V19z M109.1,9.6h-2.4V19h-2.5V9.6h-1.5V7.5h1.5V5.1
	c-0.1-1.9,1.3-3.5,3.2-3.6c0.1,0,0.3,0,0.4,0c0.9,0,1.8,0.2,2.6,0.6l-0.8,2c-0.4-0.3-0.9-0.4-1.4-0.4c-0.8,0-1.5,0.7-1.5,1.5
	c0,0,0,0.1,0,0.1v2.2h3L109.1,9.6z M112.1,13.9c-0.1,1.7,1.2,3.1,2.9,3.2c0,0,0,0,0,0c1.2-0.1,2.3-0.7,3-1.8l1.6,1.5
	c-1.1,1.5-2.9,2.5-4.8,2.5c-3.3,0-5.3-2.5-5.3-6c0-3.4,2.2-6,5.4-6c3.1,0,5.2,2,5.1,6.7C120,13.9,112.1,13.9,112.1,13.9z M117.3,12
	c0.1-1.4-0.9-2.6-2.3-2.7c0,0-0.1,0-0.1,0c-1.5,0.1-2.6,1.3-2.7,2.7H117.3L117.3,12z M42.8,19H40V3h3l4.7,7.9h0L52.4,3h2.9v16h-2.8
	V7.7h0l-4.9,8.1l-4.9-8.1h0V19z"/>
<path id="Logo" class="st0" d="M16,4v18l4-4V0L16,4z M8,22l4-4V0L8,4V22z M0,22l4-4V0L0,4V22z"/>
</svg>
